<svg width="922" height="923" viewBox="0 0 922 923" fill="none" xmlns="http://www.w3.org/2000/svg">
<path d="M126.934 249.5C126.934 249.5 152.363 224.286 167.954 210.5C184.227 196.111 197.181 183 197.181 183M126.934 249.5L95.1429 288L9 256C9 256 17.9127 206.001 31.0485 176.5C55.923 120.635 84.4999 92.269 133.087 54C159.013 33.5796 204.36 11 204.36 11L258.199 145L197.181 183M126.934 249.5C126.934 249.5 107.684 243.845 97.7066 239C85.0509 232.855 71.0434 219.5 71.0434 219.5C71.0434 219.5 88.5068 180.118 105.398 158.5C121.806 137.5 134.762 122 148.982 106C154.753 99.5075 169.444 97.6558 171.543 106C178.209 132.5 197.181 183 197.181 183M795.566 249.5C795.566 249.5 770.137 224.286 754.546 210.5C738.273 196.111 725.319 183 725.319 183M795.566 249.5L827.357 288L913.5 256C913.5 256 904.587 206.001 891.452 176.5C866.577 120.635 838 92.269 789.413 54C763.487 33.5796 718.14 11 718.14 11L664.301 145L725.319 183M795.566 249.5C795.566 249.5 814.816 243.845 824.793 239C837.449 232.855 851.457 219.5 851.457 219.5C851.457 219.5 833.993 180.118 817.102 158.5C800.694 137.5 787.738 122 773.518 106C767.747 99.5075 753.056 97.6558 750.957 106C744.291 132.5 725.319 183 725.319 183M718.575 830.5C776.443 779.691 817.13 712.629 835.255 638.782C853.379 564.935 848.086 487.463 820.077 416.613C792.067 345.763 742.66 284.873 678.392 241.999C614.123 199.124 538.022 176.285 460.152 176.502C382.283 176.718 306.316 199.981 242.3 243.212C178.284 286.444 129.234 347.607 101.64 418.612C74.0454 489.617 69.2062 567.117 87.7624 640.862C106.319 714.607 145.682 780.014 203.847 830.5L211.025 772L215.127 712L244.867 640.862L269.479 712L291.528 751L318.704 785.5L332.036 751L342.803 693L354.597 651L379.209 722.5L409.974 790.5L429.459 751L443.303 706.5L461.25 664L479.322 706.5L493.166 751L512.651 790.5L543.416 722.5L568.028 651L579.822 693L590.59 751L603.921 785.5L631.097 751L653.146 712L677.758 640.862L707.498 712L711.6 772L718.575 830.5ZM272.26 814C272.26 814 270.619 831.485 272.26 842.5C273.817 852.958 279.957 868.5 279.957 868.5C279.957 868.5 327.581 895.177 361.036 904.5C397.123 914.557 456.483 915.5 456.483 915.5C456.483 915.5 514.857 913.988 551.93 904.5C588.175 895.224 642.543 868.5 642.543 868.5C642.543 868.5 648.683 852.958 650.24 842.5C651.881 831.485 650.24 814 650.24 814C650.24 814 624.355 836.675 605.596 844.5C597.143 848.026 586.609 852 586.609 852L557.872 818.5C557.872 818.5 538.725 841.416 522.977 852C516.102 856.621 504.504 862.5 504.504 862.5C504.504 862.5 495.582 852.169 490.649 845C485.748 837.879 485.085 832.51 479.359 826C473.514 819.354 461.101 812 461.101 812C461.101 812 448.986 819.354 443.141 826C437.415 832.51 436.752 837.879 431.851 845C426.918 852.169 417.996 862.5 417.996 862.5C417.996 862.5 406.398 856.621 399.523 852C383.775 841.416 364.628 818.5 364.628 818.5L335.891 852C335.891 852 325.357 848.026 316.904 844.5C298.145 836.675 272.26 814 272.26 814ZM421.768 548C421.768 548 389.966 599 357.671 599C322.804 599 222.819 545 216.664 466.5C212.88 418.239 245.378 334.5 245.378 334.5L336.138 456L421.768 548ZM500.731 548C500.731 548 532.533 599 564.828 599C599.695 599 699.68 545 705.835 466.5C709.619 418.239 677.121 334.5 677.121 334.5L586.361 456L500.731 548ZM461.25 285L472.702 310.333L499.194 322L472.702 333.667L461.25 359L449.798 333.667L423.306 322L449.798 310.333L461.25 285Z" stroke="white" stroke-width="15"/>
</svg>
