<svg width="41" height="41" viewBox="0 0 41 41" fill="none" xmlns="http://www.w3.org/2000/svg">
<g clip-path="url(#clip0_266_163)">
<path d="M31.3906 0H9.60938C4.30226 0 0 4.30226 0 9.60938V31.3906C0 36.6977 4.30226 41 9.60938 41H31.3906C36.6977 41 41 36.6977 41 31.3906V9.60938C41 4.30226 36.6977 0 31.3906 0Z" fill="url(#paint0_linear_266_163)"/>
<g filter="url(#filter0_d_266_163)">
<path d="M21.1358 31.4158C25.8886 31.4158 28.7527 29.0885 28.7527 25.2502C28.7527 22.3487 26.7093 20.2482 23.6748 19.9156V19.7948C25.9042 19.4321 27.6535 17.3617 27.6535 15.0497C27.6535 11.7553 25.0528 9.60938 21.0894 9.60938H12.1719V31.4158H21.1358ZM15.6397 12.3748H20.2534C22.7614 12.3748 24.1857 13.4932 24.1857 15.5182C24.1857 17.6792 22.5292 18.888 19.5258 18.888H15.6397V12.3748ZM15.6397 28.6504V21.4723H20.2223C23.5045 21.4723 25.2075 22.6812 25.2075 25.0387C25.2075 27.396 23.551 28.6504 20.4236 28.6504H15.6397Z" fill="url(#paint1_linear_266_163)"/>
<path d="M21.1358 31.4158C25.8886 31.4158 28.7527 29.0885 28.7527 25.2502C28.7527 22.3487 26.7093 20.2482 23.6748 19.9156V19.7948C25.9042 19.4321 27.6535 17.3617 27.6535 15.0497C27.6535 11.7553 25.0528 9.60938 21.0894 9.60938H12.1719V31.4158H21.1358ZM15.6397 12.3748H20.2534C22.7614 12.3748 24.1857 13.4932 24.1857 15.5182C24.1857 17.6792 22.5292 18.888 19.5258 18.888H15.6397V12.3748ZM15.6397 28.6504V21.4723H20.2223C23.5045 21.4723 25.2075 22.6812 25.2075 25.0387C25.2075 27.396 23.551 28.6504 20.4236 28.6504H15.6397Z" stroke="#F9F9F9" stroke-width="2"/>
</g>
</g>
<defs>
<filter id="filter0_d_266_163" x="-4.82812" y="-3.39062" width="50.5808" height="55.8064" filterUnits="userSpaceOnUse" color-interpolation-filters="sRGB">
<feFlood flood-opacity="0" result="BackgroundImageFix"/>
<feColorMatrix in="SourceAlpha" type="matrix" values="0 0 0 0 0 0 0 0 0 0 0 0 0 0 0 0 0 0 127 0" result="hardAlpha"/>
<feOffset dy="4"/>
<feGaussianBlur stdDeviation="8"/>
<feColorMatrix type="matrix" values="0 0 0 0 0 0 0 0 0 0 0 0 0 0 0 0 0 0 0.15 0"/>
<feBlend mode="normal" in2="BackgroundImageFix" result="effect1_dropShadow_266_163"/>
<feBlend mode="normal" in="SourceGraphic" in2="effect1_dropShadow_266_163" result="shape"/>
</filter>
<linearGradient id="paint0_linear_266_163" x1="0" y1="0" x2="41" y2="41" gradientUnits="userSpaceOnUse">
<stop stop-color="#9013FE"/>
<stop offset="1" stop-color="#6B11F4"/>
</linearGradient>
<linearGradient id="paint1_linear_266_163" x1="13.7403" y1="11.0447" x2="23.7898" y2="28.0408" gradientUnits="userSpaceOnUse">
<stop stop-color="white"/>
<stop offset="1" stop-color="#F1E5FC"/>
</linearGradient>
<clipPath id="clip0_266_163">
<rect width="41" height="41" fill="white"/>
</clipPath>
</defs>
</svg>
