<svg width="75" height="63" viewBox="0 0 75 63" fill="none" xmlns="http://www.w3.org/2000/svg">
<path d="M27.1118 41.3827C26.9669 42.0423 26.8868 42.7584 26.8868 43.5071C26.8868 46.7837 28.4074 49.4398 30.283 49.4399C31.863 49.4398 33.1905 47.5547 33.5698 45.0019L35.9434 46.3322C35.9299 46.3519 28.5789 57.0624 22.0755 51.4175C17.8547 47.7538 19.8091 37.3039 19.8113 37.2918L27.1118 41.3827Z" fill="#F9F9F9"/>
<path d="M57.1698 37.0093C57.1722 37.0223 59.1262 47.4714 54.9057 51.135C48.4026 56.7795 41.0522 46.0708 41.0377 46.0497L43.4113 44.7194C43.7907 47.2722 45.1181 49.1572 46.6981 49.1574C48.5738 49.1573 50.0943 46.5011 50.0943 43.2246C50.0943 42.4759 50.0142 41.7598 49.8694 41.1002L57.1698 37.0093Z" fill="#F9F9F9"/>
<path fill-rule="evenodd" clip-rule="evenodd" d="M27.4528 0C27.4528 0 35.6604 12.7131 37.6415 12.7131C41.6038 12.7131 48.3962 1.13005 48.3962 1.13005C48.3962 1.13005 52.6415 14.2141 53.7736 14.6907C57.1286 16.1033 67.6415 7.91038 67.6415 7.91038C67.6415 7.91038 62.3671 19.776 63.3962 22.0361C64.0394 23.4486 75 24.2962 75 24.2962C75 24.2962 68.9514 29.7307 65.0335 33.3167C68.3983 35.1153 70.3801 38.9275 69.6707 42.8808C68.8656 47.3669 64.7492 51.1768 60.293 51.1377C58.0318 57.9297 49.1297 62.9998 38.4911 63C27.8473 63 18.9408 57.9253 16.6848 51.1284C12.1025 51.3664 7.79998 47.4783 6.97487 42.8808C6.37355 39.5298 7.70521 36.2798 10.1743 34.2719C6.24986 29.4053 0 22.0361 0 22.0361C0 22.0361 11.0377 24.5787 12.1698 23.4486C13.8913 21.7302 9.90566 8.75792 9.90566 8.75792C9.90566 8.75792 16.7993 16.1041 21.7925 14.6907C27.7166 13.0137 27.4528 0 27.4528 0ZM47.5792 7.51751C47.3165 7.88233 47.0438 8.2538 46.7622 8.6255C45.6216 10.1314 44.28 11.7362 42.8995 12.9918C42.2087 13.62 41.4424 14.2214 40.627 14.6786C39.8326 15.1239 38.8043 15.5383 37.6415 15.5383C36.8209 15.5383 36.1752 15.232 35.8328 15.0433C35.4443 14.8292 35.0982 14.5682 34.813 14.3287C34.2399 13.8475 33.6485 13.2296 33.0867 12.5906C31.9494 11.2973 30.6758 9.62247 29.5097 8.01081C29.4981 7.99479 29.4864 7.97881 29.4749 7.9628C29.1029 9.64678 28.5371 11.462 27.6513 13.0574C26.6721 14.8208 25.1395 16.5937 22.7941 17.3398L22.5647 17.4088C20.5306 17.9846 18.5153 17.616 16.8606 17.0148C16.1143 16.7436 15.3904 16.4066 14.7032 16.036C14.9961 17.4489 15.2456 18.897 15.361 20.1749C15.4343 20.9879 15.4649 21.8433 15.3809 22.6254C15.3127 23.2596 15.1135 24.5052 14.1708 25.4461C13.6324 25.9836 13.0211 26.2153 12.6706 26.3218C12.282 26.4398 11.9017 26.4953 11.5877 26.5248C10.9585 26.5841 10.262 26.5676 9.60219 26.5237C8.87523 26.4753 8.07216 26.3843 7.25291 26.2716C8.97433 28.3362 10.8491 30.6038 12.3788 32.5007L14.1432 34.6885L11.962 36.4619C10.2581 37.8475 9.34813 40.0824 9.76083 42.3826L9.82551 42.701C10.5749 45.9643 13.6867 48.4552 16.5378 48.3071L18.6925 48.1951L19.3713 50.24C20.2152 52.7824 22.405 55.2609 25.8117 57.1406C29.1949 59.0074 33.6044 60.1749 38.4911 60.1749L38.9477 60.1716C43.6499 60.1013 47.8884 58.9498 51.1651 57.1428C54.5708 55.2646 56.7611 52.7877 57.6071 50.2466L58.2571 48.2944L60.3178 48.3126C63.2102 48.3379 66.289 45.7019 66.8848 42.3826L66.9251 42.1287C67.2859 39.507 65.9415 37.007 63.6975 35.8075L60.1791 33.927L63.1209 31.2343C64.7251 29.7661 66.6829 27.9916 68.4369 26.4062C67.1797 26.222 65.8838 25.9969 64.7964 25.7264C64.1739 25.5716 63.5158 25.3774 62.9413 25.1255C62.6547 24.9999 62.3065 24.8246 61.9695 24.5803C61.6815 24.3716 61.2103 23.9757 60.8833 23.3361L60.8198 23.2053C60.374 22.2264 60.4099 21.1732 60.4632 20.5424C60.5262 19.7974 60.6841 18.991 60.8761 18.2056C61.1052 17.2689 61.4109 16.2519 61.7484 15.2331C60.6417 15.8508 59.4921 16.4266 58.3876 16.8581C57.5451 17.1873 56.6392 17.4693 55.742 17.6003C54.932 17.7185 53.9 17.748 52.8781 17.374L52.6736 17.294C51.8659 16.954 51.4011 16.3366 51.2767 16.1739C51.0661 15.8984 50.8871 15.6014 50.7433 15.3429C50.4503 14.8163 50.1476 14.1649 49.8555 13.4867C49.2643 12.1141 48.6047 10.3703 47.9977 8.6895C47.8556 8.29608 47.7158 7.90366 47.5792 7.51751Z" fill="#F9F9F9"/>
</svg>
