<svg width="41" height="41" viewBox="0 0 41 41" fill="none" xmlns="http://www.w3.org/2000/svg">
<g filter="url(#filter0_i_264_146)">
<rect width="41" height="41" rx="10" fill="#0277BD"/>
<path d="M10.2382 16.9355L10.6337 21.3503H20.5133V16.9355H10.2382ZM20.5131 8H9.44305L9.84442 12.4148H20.5131V8ZM20.5131 32.9943V28.4011L20.4938 28.4063L15.577 27.0787L15.2627 23.5577H10.831L11.4495 30.4895L20.4928 33L20.5131 32.9943Z" fill="#EBEBEB"/>
<path d="M25.9342 21.3503L25.4217 27.0758L20.4979 28.4049V32.9978L29.5484 30.4895L29.6148 29.7436L30.6522 18.1211L30.7599 16.9355L31.5569 8H20.4979V12.4148H26.7187L26.317 16.9355H20.4979V21.3503H25.9342Z" fill="#F9F9F9"/>
</g>
<defs>
<filter id="filter0_i_264_146" x="0" y="0" width="41" height="41" filterUnits="userSpaceOnUse" color-interpolation-filters="sRGB">
<feFlood flood-opacity="0" result="BackgroundImageFix"/>
<feBlend mode="normal" in="SourceGraphic" in2="BackgroundImageFix" result="shape"/>
<feColorMatrix in="SourceAlpha" type="matrix" values="0 0 0 0 0 0 0 0 0 0 0 0 0 0 0 0 0 0 127 0" result="hardAlpha"/>
<feOffset/>
<feGaussianBlur stdDeviation="1"/>
<feComposite in2="hardAlpha" operator="arithmetic" k2="-1" k3="1"/>
<feColorMatrix type="matrix" values="0 0 0 0 0 0 0 0 0 0 0 0 0 0 0 0 0 0 0.25 0"/>
<feBlend mode="normal" in2="shape" result="effect1_innerShadow_264_146"/>
</filter>
</defs>
</svg>
