<svg width="41" height="41" viewBox="0 0 41 41" fill="none" xmlns="http://www.w3.org/2000/svg">
<g clip-path="url(#clip0_269_233)">
<path d="M31.3906 0H9.60938C4.30226 0 0 4.30226 0 9.60938V31.3906C0 36.6977 4.30226 41 9.60938 41H31.3906C36.6977 41 41 36.6977 41 31.3906V9.60938C41 4.30226 36.6977 0 31.3906 0Z" fill="#242938"/>
<mask id="mask0_269_233" style="mask-type:luminance" maskUnits="userSpaceOnUse" x="9" y="4" width="23" height="33">
<path d="M9.76953 4.48438H31.128V36.5156H9.76953V4.48438Z" fill="white"/>
</mask>
<g mask="url(#mask0_269_233)">
<path d="M15.1103 36.5156C18.0571 36.5156 20.4487 34.124 20.4487 31.1772V25.8385H15.1103C12.1634 25.8385 9.77161 28.2303 9.77161 31.1772C9.77161 34.124 12.1634 36.5156 15.1103 36.5156Z" fill="#0ACF83"/>
<path d="M9.77161 20.5C9.77161 17.5531 12.1634 15.1615 15.1103 15.1615H20.4487V25.8385H15.1103C12.1634 25.8385 9.77161 23.4469 9.77161 20.5Z" fill="#A259FF"/>
<path d="M9.77161 9.82286C9.77161 6.87599 12.1634 4.48438 15.1103 4.48438H20.4487V15.1615H15.1103C12.1634 15.1615 9.77161 12.7697 9.77161 9.82286Z" fill="#F24E1E"/>
<path d="M20.4487 4.48438H25.7872C28.7341 4.48438 31.1259 6.87599 31.1259 9.82286C31.1259 12.7697 28.7341 15.1615 25.7872 15.1615H20.4487V4.48438Z" fill="#FF7262"/>
<path d="M31.1259 20.5C31.1259 23.4469 28.7341 25.8385 25.7872 25.8385C22.8403 25.8385 20.4487 23.4469 20.4487 20.5C20.4487 17.5531 22.8403 15.1615 25.7872 15.1615C28.7341 15.1615 31.1259 17.5531 31.1259 20.5Z" fill="#1ABCFE"/>
</g>
</g>
<defs>
<clipPath id="clip0_269_233">
<rect width="41" height="41" fill="white"/>
</clipPath>
</defs>
</svg>
