<svg width="188" height="41" viewBox="0 0 188 41" fill="none" xmlns="http://www.w3.org/2000/svg">
<g clip-path="url(#clip0_269_338)">
<path d="M31.3906 0H9.60938C4.30226 0 0 4.30226 0 9.60938V31.3906C0 36.6977 4.30226 41 9.60938 41H31.3906C36.6977 41 41 36.6977 41 31.3906V9.60938C41 4.30226 36.6977 0 31.3906 0Z" fill="#242938"/>
<path fill-rule="evenodd" clip-rule="evenodd" d="M13.293 17.6172C14.2539 13.7734 16.6562 11.8516 20.5 11.8516C26.2656 11.8516 26.9863 16.1758 29.8691 16.8965C31.791 17.3772 33.4727 16.6565 34.9141 14.7344C33.9531 18.5781 31.5508 20.5 27.707 20.5C21.9414 20.5 21.2207 16.1758 18.3379 15.4551C16.416 14.9746 14.7344 15.6953 13.293 17.6172ZM6.08594 26.2656C7.04688 22.4219 9.44922 20.5 13.293 20.5C19.0586 20.5 19.7793 24.8242 22.6621 25.5449C24.584 26.0256 26.2656 25.3049 27.707 23.3828C26.7461 27.2266 24.3438 29.1484 20.5 29.1484C14.7344 29.1484 14.0137 24.8242 11.1309 24.1035C9.20898 23.6228 7.52734 24.3435 6.08594 26.2656Z" fill="url(#paint0_linear_269_338)"/>
</g>
<g clip-path="url(#clip1_269_338)">
<path d="M80.3906 0H58.6094C53.3023 0 49 4.30226 49 9.60938V31.3906C49 36.6977 53.3023 41 58.6094 41H80.3906C85.6977 41 90 36.6977 90 31.3906V9.60938C90 4.30226 85.6977 0 80.3906 0Z" fill="url(#paint1_linear_269_338)"/>
<path d="M61.6905 11.0091C60.0911 13.3503 60.2904 16.3957 61.5088 18.8802L61.5985 19.0571L61.6591 19.1693C61.6703 19.191 61.6831 19.2125 61.6948 19.2336C61.7159 19.273 61.7371 19.3108 61.7553 19.3496L61.8719 19.5533L61.9384 19.6654L62.0737 19.881L62.1343 19.9718C62.1948 20.0687 62.2632 20.1649 62.3304 20.2599L62.3359 20.2674C62.3465 20.2827 62.3583 20.2977 62.3663 20.3129C62.4243 20.3946 62.4872 20.4752 62.5478 20.5551L62.615 20.6422L62.78 20.8488L62.8429 20.9257C62.918 21.0162 62.9947 21.1054 63.0731 21.1933L63.0779 21.1981C63.0809 21.202 63.084 21.2042 63.087 21.208C63.1628 21.2938 63.2407 21.3775 63.3207 21.4593L63.3958 21.5362L63.5825 21.7228L63.6588 21.7966C63.7428 21.877 63.8281 21.956 63.9145 22.0336L63.9631 22.0759L64.1953 22.2758L64.2914 22.354L64.4852 22.5053L64.5888 22.5855L64.8849 22.8019C64.8925 22.807 64.899 22.8125 64.9067 22.8176C64.9762 22.8661 65.0469 22.9131 65.1176 22.96L65.2091 23.022L65.5397 23.2279L65.6311 23.2803L65.8793 23.4219C65.9247 23.4467 65.9711 23.4704 66.0164 23.494L66.1939 23.5848L66.2347 23.6048L66.3074 23.6405L66.5888 23.7731L66.6486 23.8034C66.7572 23.8515 66.8665 23.8978 66.9767 23.9422L67.0567 23.9744L67.3662 24.0912L67.405 24.1051C67.5194 24.1455 67.6344 24.1839 67.7501 24.2203L67.8334 24.2456C67.9545 24.2819 68.068 24.3253 68.1898 24.3485C75.9237 25.7884 78.1709 19.6182 78.1709 19.6182C76.2841 22.1217 72.9349 22.7816 69.7619 22.0469C69.6416 22.0167 69.525 21.9813 69.4076 21.9459L69.3192 21.9156C69.205 21.8798 69.0914 21.8422 68.9784 21.8027L68.9314 21.7854C68.8307 21.7491 68.7305 21.7112 68.6308 21.6719L68.5461 21.6379C68.437 21.5942 68.3288 21.5484 68.2215 21.5005L68.1568 21.4715L67.8831 21.3413L67.8044 21.3025C67.7333 21.2668 67.6626 21.2302 67.5924 21.1927L67.4511 21.1169C67.3657 21.0702 67.2811 21.0219 67.1974 20.972L67.1117 20.9234C67.0005 20.8566 66.8903 20.788 66.7812 20.7176C66.7509 20.6979 66.7218 20.6771 66.6918 20.6571L66.4565 20.4979L66.381 20.4435L66.1585 20.2799L66.0597 20.2042L65.859 20.0443L65.7695 19.9718L65.5196 19.7599C65.51 19.7515 65.4999 19.7437 65.4894 19.7365C65.4006 19.6567 65.313 19.5756 65.2267 19.4931L65.1527 19.4205L64.9637 19.2322L64.8901 19.1564C64.8113 19.0747 64.7341 18.9916 64.6585 18.9071C64.6548 18.9028 64.6505 18.8989 64.6469 18.8949C64.5669 18.8056 64.4885 18.7148 64.412 18.6225L64.3505 18.548L64.181 18.3352L64.1189 18.2565L63.9237 17.9916C62.162 15.5441 61.5322 12.1687 62.9368 9.39636L61.6905 11.0091ZM66.6551 9.03665C65.4988 10.7319 65.5614 13.0005 66.4636 14.7933C66.6145 15.0943 66.7854 15.3848 66.9751 15.663C67.1484 15.9158 67.3406 16.2171 67.5706 16.4199C67.6539 16.5107 67.741 16.6015 67.83 16.6942C67.8525 16.7174 67.8755 16.7395 67.8984 16.7629C67.9849 16.8486 68.0733 16.9323 68.1637 17.0139L68.1745 17.0235C68.2763 17.1139 68.3804 17.2018 68.4867 17.2869L68.557 17.3425C68.6627 17.4258 68.7706 17.5061 68.8808 17.5835C68.8837 17.586 68.8868 17.5884 68.89 17.5906C68.9383 17.6247 68.9883 17.6571 69.0376 17.6897C69.0613 17.7056 69.0836 17.7222 69.1073 17.737C69.1863 17.7887 69.2663 17.8386 69.3474 17.8869L69.3813 17.9069L69.5932 18.028C69.618 18.0422 69.6433 18.0546 69.6688 18.0679L69.8201 18.146C69.8278 18.15 69.8354 18.1529 69.8426 18.1566C69.9446 18.208 70.0473 18.2565 70.1523 18.3035C70.1747 18.3134 70.1976 18.3225 70.2207 18.3321C70.3048 18.3687 70.3896 18.4037 70.475 18.4372L70.5839 18.4779C70.6612 18.5065 70.739 18.534 70.8171 18.5605L70.9223 18.5946C71.0335 18.63 71.1434 18.6742 71.2593 18.6939C77.2306 19.7015 78.6095 15.0188 78.6095 15.0188C77.3669 16.8412 74.9605 17.7114 72.3921 17.0326C72.2785 17.0023 72.1658 16.969 72.054 16.9327C72.0197 16.9221 71.9863 16.9109 71.9523 16.9024C71.873 16.8763 71.7942 16.8486 71.7159 16.8194L71.6089 16.7789C71.5233 16.7487 71.4385 16.7109 71.3548 16.6745C71.3317 16.6644 71.3086 16.6554 71.2861 16.6449C71.1807 16.5987 71.0767 16.5496 70.9742 16.4974C70.9215 16.4711 70.8698 16.4436 70.8179 16.4162L70.7278 16.3691C70.6612 16.3324 70.5953 16.2946 70.5301 16.2555L70.4829 16.2253C70.4023 16.177 70.3226 16.1274 70.2438 16.0763C70.2194 16.0605 70.1959 16.046 70.1717 16.0273L70.0167 15.9229C69.9072 15.8454 69.7996 15.7652 69.6939 15.6825L69.6212 15.6244C68.4973 14.7204 67.606 13.4853 67.1825 12.0846C66.7384 10.6315 66.8344 9.00125 67.6063 7.67804L66.6551 9.03665ZM70.8298 7.56305C70.148 8.58501 70.0812 9.85409 70.5574 10.9827C71.0562 12.1805 72.0785 13.1205 73.2715 13.5659C73.3207 13.5846 73.37 13.6011 73.4229 13.6182L73.4884 13.6394C73.5585 13.6618 73.6285 13.6877 73.7009 13.7018C76.9982 14.3505 77.8923 11.9786 78.1303 11.6294C77.3469 12.7784 76.0304 13.0542 74.415 12.6549C74.2879 12.623 74.1471 12.5761 74.0214 12.5321C73.8634 12.4747 73.7085 12.4091 73.5574 12.3355C73.27 12.1944 72.9974 12.025 72.7436 11.8296C71.295 10.7125 70.3969 8.58197 71.3402 6.84683M63.548 29.2575L63.3247 30.0495L63.548 29.2578V29.2575ZM70.1123 27.4442H69.089C69.0601 27.4453 69.0322 27.4557 69.0096 27.4739C68.9871 27.4922 68.971 27.5172 68.9638 27.5453L68.2372 30.9077C68.2299 30.9357 68.2139 30.9606 68.1914 30.9788C68.1689 30.9969 68.1411 31.0073 68.1122 31.0085H67.3879C66.671 31.0085 66.754 30.513 66.9034 29.8339L66.908 29.8134L66.9948 29.3502L67.0323 29.1595L67.363 27.5453C67.3662 27.5329 67.3664 27.5201 67.3636 27.5076C67.3609 27.4952 67.3553 27.4836 67.3473 27.4738C67.3392 27.4639 67.329 27.4561 67.3174 27.4509C67.3058 27.4457 67.2931 27.4433 67.2804 27.4439H66.2299C66.201 27.4448 66.1731 27.4552 66.1506 27.4735C66.128 27.4917 66.1121 27.5168 66.1052 27.5449L65.6319 29.7894C65.3717 30.9773 65.4407 32.1102 66.855 32.1456L66.8959 32.1464H69.1155C69.1444 32.1453 69.1722 32.1348 69.1948 32.1166C69.2173 32.0984 69.2334 32.0734 69.2405 32.0453L70.1976 27.5449C70.2098 27.4894 70.1725 27.4439 70.116 27.4439L70.1123 27.4442ZM74.1951 31.0203C74.2522 31.0203 74.2859 31.0657 74.2778 31.1214L74.1785 31.6073L74.1951 31.0203Z" fill="#F9F9F9"/>
<path d="M71.4576 30.3949C71.4568 30.3416 71.5173 30.2502 71.5742 30.2502L71.4464 30.2481C71.3858 30.8275 71.4576 30.3949 71.4576 30.3949ZM74.1951 31.0203C74.2522 31.0203 74.286 31.0657 74.2778 31.1214L74.1622 31.6863L74.1951 31.0203ZM72.2914 32.2045H72.2435H72.2975H72.2914ZM57.2465 30.4069L57.4055 29.7023L57.2239 30.5075L57.2026 30.6086L57.2468 30.4065L57.2465 30.4069ZM59.1494 27.4327H58.0254C57.9964 27.4338 57.9685 27.4442 57.9458 27.4624C57.923 27.4805 57.9068 27.5055 57.8992 27.5336L57.6861 28.4719C57.6825 28.4841 57.682 28.4969 57.6844 28.5093C57.6869 28.5218 57.6923 28.5334 57.7002 28.5433C57.7081 28.5532 57.7182 28.561 57.7298 28.5662C57.7414 28.5713 57.754 28.5736 57.7666 28.5728H58.8994C58.9284 28.5718 58.9562 28.5613 58.9788 28.5432C59.0013 28.525 59.0174 28.5 59.0247 28.4719L59.2306 27.5313C59.2426 27.4761 59.2063 27.4306 59.1489 27.4306L59.1494 27.4327ZM55.6396 34.0511L56.5666 34.0585C56.2929 34.0585 55.8411 34.0534 55.6393 34.051L55.6396 34.0511Z" fill="#F9F9F9"/>
<path d="M58.8237 28.8964H57.6906C57.6615 28.8975 57.6336 28.9079 57.6109 28.9261C57.5882 28.9442 57.5719 28.9692 57.5644 28.9973L57.2465 30.4066L57.2022 30.6089L56.8996 32.0478C56.8846 32.115 56.8665 32.1813 56.8451 32.2467C56.8451 32.2467 56.6332 32.8764 56.2778 32.8694L55.9252 32.8628C55.8962 32.8636 55.8683 32.8736 55.8454 32.8913C55.8226 32.9091 55.806 32.9336 55.798 32.9614L55.5634 33.9491C55.5597 33.9612 55.559 33.974 55.5613 33.9864C55.5635 33.9988 55.5688 34.0105 55.5765 34.0205C55.5842 34.0305 55.5943 34.0384 55.6057 34.0437C55.6172 34.0491 55.6297 34.0515 55.6423 34.051L56.5696 34.0585C57.4585 34.0585 57.9268 33.5659 58.2272 32.1491L58.9084 29.0008C58.9206 28.9455 58.8836 28.9 58.8267 28.9L58.8237 28.8964ZM74.9171 32.1471C74.8603 32.1471 74.8263 32.1017 74.8355 32.046L75.6876 28.0543L74.9171 32.1471Z" fill="#F9F9F9"/>
<path d="M74.8478 32.0966C74.8409 32.0687 74.8449 32.0005 74.8569 31.9451L75.2613 30.0501L74.8351 32.046C74.823 32.1017 74.86 32.147 74.9168 32.147H75.0204C74.9636 32.147 74.8545 32.1243 74.8478 32.0966ZM76.0345 32.1243C76.0036 32.1365 75.9316 32.147 75.8747 32.147H75.9782C76.0071 32.146 76.0348 32.1355 76.0572 32.1172C76.0796 32.0989 76.0954 32.0738 76.1023 32.0457L76.1229 31.9446C76.1117 32.0002 76.0624 32.112 76.0321 32.1243H76.0345ZM79.6363 28.3216L79.6832 28.5153C79.6964 28.5708 79.6603 28.6158 79.6036 28.6161M76.426 30.4419L76.4678 30.2409L76.6303 29.4795L76.4463 30.3416L76.426 30.4415V30.4419ZM75.7016 27.9886L75.6662 28.155L75.2616 30.0501L75.688 28.0543L75.7016 27.9889V27.9886Z" fill="#F9F9F9"/>
<path d="M79.6835 28.5154L79.6366 28.3216L79.5671 28.0189C79.475 27.6616 79.205 27.4548 78.6183 27.4548L75.9179 27.453C75.889 27.454 75.8612 27.4644 75.8387 27.4826C75.8162 27.5009 75.8003 27.526 75.7933 27.5541L75.7515 27.7519L75.691 28.0506L74.8603 31.9416C74.8481 31.9973 74.8443 32.0627 74.8511 32.0929C74.858 32.1232 74.9671 32.1435 75.0238 32.1435H75.8774C75.9343 32.1435 76.006 32.1331 76.0373 32.1208C76.0685 32.1083 76.1141 31.9997 76.1281 31.9409L76.4521 30.3383L76.7986 28.7144C76.8059 28.6865 76.8219 28.6616 76.8444 28.6434C76.8668 28.6253 76.8946 28.6149 76.9234 28.6137L79.6094 28.6124C79.6661 28.6124 79.7021 28.5671 79.689 28.5117L79.6835 28.5154ZM83.1416 26.7616L82.9349 26.7624H82.0752C82.0437 26.7645 82.013 26.7732 81.9852 26.7879C81.9573 26.8026 81.9328 26.823 81.9134 26.8478L80.0123 29.6329C79.9803 29.6798 79.9436 29.673 79.9307 29.6179L79.7907 29.0041C79.7832 28.9761 79.7668 28.9512 79.7441 28.933C79.7214 28.9149 79.6935 28.9045 79.6645 28.9034H78.4425C78.3855 28.9034 78.3517 28.9479 78.3674 29.0027L78.9122 30.9214C78.9279 30.9758 78.9289 31.0657 78.9153 31.1211L78.6731 32.0497C78.669 32.0616 78.6679 32.0743 78.6699 32.0867C78.6719 32.0991 78.6771 32.1109 78.6848 32.1208C78.6926 32.1307 78.7027 32.1385 78.7143 32.1435C78.7258 32.1486 78.7384 32.1507 78.7509 32.1498H79.9617C79.991 32.1486 80.0191 32.1383 80.0422 32.1204C80.0653 32.1025 80.0823 32.0778 80.0908 32.0498L80.333 31.1214C80.3519 31.0561 80.3817 30.9942 80.4207 30.9387L83.5103 26.8419C83.5446 26.7964 83.5262 26.7596 83.4692 26.76L83.1453 26.7623L83.1416 26.7616ZM73.4314 29.1643C73.4242 29.2248 73.3673 29.2703 73.3103 29.2703H71.7603C71.7068 29.2703 71.6796 29.234 71.6877 29.1885L71.6889 29.1803L71.6959 29.1541C71.8473 28.7606 72.1455 28.5022 72.7118 28.5022C73.3497 28.5022 73.4741 28.814 73.4309 29.1643H73.4314ZM72.9767 27.3758C70.9879 27.3758 70.5165 28.5831 70.2523 29.8016C69.9877 31.0436 70.0106 32.2052 72.0686 32.2052H72.3948L72.6461 32.2042L73.9557 32.1964C73.9844 32.1951 74.012 32.1845 74.0342 32.1662C74.0564 32.1479 74.0721 32.123 74.0789 32.095L74.2778 31.1227C74.2893 31.067 74.2522 31.0215 74.1951 31.0215H72.3449C71.6093 31.0215 71.3905 30.8259 71.4709 30.2511H74.4287C74.4525 30.2509 74.4756 30.2435 74.4952 30.2299C74.5147 30.2163 74.5297 30.1971 74.5382 30.1749C74.5416 30.1666 74.544 30.158 74.5454 30.1491C74.9844 28.4933 74.8585 27.3771 72.9773 27.3771L72.9767 27.3758ZM63.5758 29.1577L63.548 29.2567L63.3247 30.0485L63.1013 30.8399C63.092 30.8677 63.0744 30.8921 63.051 30.9098C63.0275 30.9275 62.9993 30.9378 62.97 30.9392H61.7874C60.8906 30.9392 60.6724 30.2378 60.8906 29.2034C61.1086 28.1454 61.537 27.4875 62.4195 27.421C63.6255 27.3302 63.8665 28.1784 63.5758 29.1574V29.1577ZM64.3865 30.8786C64.3865 30.8786 64.9436 29.5255 65.0707 28.7436C65.2432 27.697 64.7197 26.1795 62.6959 26.1795C60.6836 26.1795 59.8099 27.6282 59.4768 29.2067C59.1437 30.7929 59.5802 32.1844 61.5806 32.1735L64.6338 32.1623C64.6631 32.1609 64.6913 32.1504 64.7144 32.1324C64.7376 32.1144 64.7546 32.0897 64.7632 32.0617L65.0204 31.0815C65.0245 31.0697 65.0256 31.057 65.0237 31.0446C65.0217 31.0322 65.0168 31.0205 65.0092 31.0104C65.0016 31.0004 64.9915 30.9924 64.98 30.9873C64.9685 30.9821 64.9558 30.9799 64.9432 30.981L64.4508 30.9779C64.4024 30.9776 64.375 30.9465 64.3805 30.9054C64.3817 30.8975 64.3837 30.8898 64.3865 30.8823V30.8786Z" fill="#F9F9F9"/>
<path d="M74.3474 29.9733C74.3474 29.9912 74.3403 30.0085 74.3276 30.0212C74.3149 30.0339 74.2976 30.0411 74.2796 30.0411C74.2616 30.0411 74.2444 30.0339 74.2317 30.0212C74.2189 30.0085 74.2118 29.9912 74.2118 29.9733C74.2118 29.9553 74.2189 29.938 74.2317 29.9253C74.2444 29.9126 74.2616 29.9054 74.2796 29.9054C74.2976 29.9054 74.3149 29.9126 74.3276 29.9253C74.3403 29.938 74.3474 29.9553 74.3474 29.9733Z" fill="#F9F9F9"/>
</g>
<g filter="url(#filter0_i_269_338)">
<rect x="98" width="41" height="41" rx="10" fill="#E14E1D"/>
<path d="M107.443 8L108.633 21.3498H123.934L123.421 27.0758L118.494 28.4078L113.577 27.0777L113.248 23.4011H108.817L109.451 30.4885L118.493 33L127.547 30.4885L128.761 16.9358H112.671L112.267 12.415H129.161L129.557 8H107.443Z" fill="#F9F9F9"/>
<path d="M118.5 8H107.443L108.633 21.3498H118.5V16.9358H112.671L112.267 12.415H118.5V8ZM118.5 28.4059L118.494 28.4078L113.577 27.0777L113.248 23.4011H108.817L109.451 30.4885L118.493 33L118.5 32.9981L118.5 28.4059Z" fill="#EBEBEB"/>
</g>
<g filter="url(#filter1_i_269_338)">
<rect x="147" width="41" height="41" rx="10" fill="#0277BD"/>
<path d="M157.238 16.9355L157.634 21.3503H167.513V16.9355H157.238ZM167.513 8H156.443L156.844 12.4148H167.513V8ZM167.513 32.9943V28.4011L167.494 28.4063L162.577 27.0787L162.263 23.5577H157.831L158.449 30.4895L167.493 33L167.513 32.9943Z" fill="#EBEBEB"/>
<path d="M172.934 21.3503L172.422 27.0758L167.498 28.4049V32.9978L176.548 30.4895L176.615 29.7436L177.652 18.1211L177.76 16.9355L178.557 8H167.498V12.4148H173.719L173.317 16.9355H167.498V21.3503H172.934Z" fill="#F9F9F9"/>
</g>
<defs>
<filter id="filter0_i_269_338" x="98" y="0" width="41" height="41" filterUnits="userSpaceOnUse" color-interpolation-filters="sRGB">
<feFlood flood-opacity="0" result="BackgroundImageFix"/>
<feBlend mode="normal" in="SourceGraphic" in2="BackgroundImageFix" result="shape"/>
<feColorMatrix in="SourceAlpha" type="matrix" values="0 0 0 0 0 0 0 0 0 0 0 0 0 0 0 0 0 0 127 0" result="hardAlpha"/>
<feOffset/>
<feGaussianBlur stdDeviation="1"/>
<feComposite in2="hardAlpha" operator="arithmetic" k2="-1" k3="1"/>
<feColorMatrix type="matrix" values="0 0 0 0 0 0 0 0 0 0 0 0 0 0 0 0 0 0 0.25 0"/>
<feBlend mode="normal" in2="shape" result="effect1_innerShadow_269_338"/>
</filter>
<filter id="filter1_i_269_338" x="147" y="0" width="41" height="41" filterUnits="userSpaceOnUse" color-interpolation-filters="sRGB">
<feFlood flood-opacity="0" result="BackgroundImageFix"/>
<feBlend mode="normal" in="SourceGraphic" in2="BackgroundImageFix" result="shape"/>
<feColorMatrix in="SourceAlpha" type="matrix" values="0 0 0 0 0 0 0 0 0 0 0 0 0 0 0 0 0 0 127 0" result="hardAlpha"/>
<feOffset/>
<feGaussianBlur stdDeviation="1"/>
<feComposite in2="hardAlpha" operator="arithmetic" k2="-1" k3="1"/>
<feColorMatrix type="matrix" values="0 0 0 0 0 0 0 0 0 0 0 0 0 0 0 0 0 0 0.25 0"/>
<feBlend mode="normal" in2="shape" result="effect1_innerShadow_269_338"/>
</filter>
<linearGradient id="paint0_linear_269_338" x1="13.8535" y1="11.8516" x2="26.1855" y2="29.709" gradientUnits="userSpaceOnUse">
<stop stop-color="#32B1C1"/>
<stop offset="1" stop-color="#14C6B7"/>
</linearGradient>
<linearGradient id="paint1_linear_269_338" x1="49" y1="0" x2="90" y2="41" gradientUnits="userSpaceOnUse">
<stop stop-color="#FF5C00"/>
<stop offset="1" stop-color="#FF0F00"/>
</linearGradient>
<clipPath id="clip0_269_338">
<rect width="41" height="41" fill="white"/>
</clipPath>
<clipPath id="clip1_269_338">
<rect width="41" height="41" fill="white" transform="translate(49)"/>
</clipPath>
</defs>
</svg>
