<svg width="41" height="41" viewBox="0 0 41 41" fill="none" xmlns="http://www.w3.org/2000/svg">
<g clip-path="url(#clip0_269_224)">
<path d="M31.3906 0H9.60938C4.30226 0 0 4.30226 0 9.60938V31.3906C0 36.6977 4.30226 41 9.60938 41H31.3906C36.6977 41 41 36.6977 41 31.3906V9.60938C41 4.30226 36.6977 0 31.3906 0Z" fill="#F03C2E"/>
<mask id="mask0_269_224" style="mask-type:luminance" maskUnits="userSpaceOnUse" x="4" y="4" width="33" height="33">
<path d="M4.48438 4.48438H36.5156V36.5156H4.48438V4.48438Z" fill="white"/>
</mask>
<g mask="url(#mask0_269_224)">
<path d="M35.911 19.0737L21.9263 5.08898C21.638 4.80033 21.2705 4.60374 20.8703 4.52411C20.4702 4.44448 20.0554 4.48539 19.6785 4.64166C19.4284 4.74548 19.2011 4.89747 19.0096 5.08898L16.1067 7.99181L19.7903 11.6754C20.6472 11.3751 21.6281 11.5803 22.3107 12.263C22.6357 12.5885 22.8626 12.9989 22.9654 13.4473C23.0682 13.8956 23.0429 14.3638 22.8922 14.7985L26.4427 18.349C27.3017 18.0527 28.2925 18.2437 28.9782 18.9314C29.3217 19.2747 29.5555 19.7122 29.6502 20.1885C29.7449 20.6648 29.6961 21.1585 29.5101 21.607C29.2607 22.2084 28.7827 22.6861 28.1811 22.9352C27.5796 23.1842 26.9038 23.1842 26.3023 22.9352C26.0044 22.8117 25.7337 22.6309 25.5058 22.4028C24.7851 21.6821 24.607 20.6211 24.9714 19.7332L21.6602 16.422V25.1356C21.9005 25.2545 22.1202 25.4113 22.3107 25.6C22.771 26.0604 23.0297 26.6847 23.0297 27.3357C23.0297 27.9867 22.771 28.6111 22.3107 29.0714C21.8504 29.5317 21.226 29.7904 20.575 29.7904C19.924 29.7904 19.2997 29.5317 18.8393 29.0714C18.4958 28.7283 18.2618 28.2909 18.167 27.8146C18.0721 27.3384 18.1207 26.8448 18.3066 26.3962C18.4301 26.0983 18.6111 25.8278 18.8393 25.6C19.0765 25.3638 19.3398 25.1846 19.6432 25.0645V16.2698C19.3421 16.1468 19.0688 15.9648 18.8393 15.7344C18.4947 15.3901 18.2604 14.951 18.1662 14.473C18.0721 13.9951 18.1224 13.4999 18.3108 13.0507L14.6773 9.41944L5.08799 18.9987C4.79931 19.2872 4.60269 19.6548 4.52301 20.0551C4.44332 20.4554 4.48416 20.8703 4.64036 21.2473C4.74423 21.4976 4.89633 21.725 5.08799 21.9166L19.0736 35.9002C19.2652 36.0917 19.4925 36.2437 19.7426 36.3475C20.2481 36.5565 20.8159 36.5565 21.3214 36.3475C21.5716 36.2437 21.7989 36.0917 21.9904 35.9002L35.911 22.0016C36.1027 21.8101 36.2548 21.5827 36.3585 21.3324C36.4623 21.0821 36.5157 20.8137 36.5158 20.5428C36.5158 20.2718 36.4623 20.0034 36.3586 19.7531C36.2548 19.5027 36.1027 19.2753 35.911 19.0838" fill="#F9F9F9"/>
</g>
</g>
<defs>
<clipPath id="clip0_269_224">
<rect width="41" height="41" fill="white"/>
</clipPath>
</defs>
</svg>
