<svg width="41" height="41" viewBox="0 0 41 41" fill="none" xmlns="http://www.w3.org/2000/svg">
<g filter="url(#filter0_i_263_121)">
<rect width="41" height="41" rx="10" fill="#E14E1D"/>
<path d="M9.44344 8L10.6334 21.3498H25.9343L25.4209 27.0758L20.4943 28.4078L15.5771 27.0777L15.2483 23.4011H10.8172L11.4509 30.4885L20.4934 33L29.5473 30.4885L30.7612 16.9358H14.671L14.267 12.415H31.1612L31.5566 8H9.44344Z" fill="#F9F9F9"/>
<path d="M20.5 8H9.44344L10.6334 21.3498H20.5V16.9358H14.671L14.267 12.415H20.5V8ZM20.5 28.4059L20.4943 28.4078L15.5771 27.0777L15.2483 23.4011H10.8172L11.4509 30.4885L20.4934 33L20.5001 32.9981L20.5 28.4059Z" fill="#EBEBEB"/>
</g>
<defs>
<filter id="filter0_i_263_121" x="0" y="0" width="41" height="41" filterUnits="userSpaceOnUse" color-interpolation-filters="sRGB">
<feFlood flood-opacity="0" result="BackgroundImageFix"/>
<feBlend mode="normal" in="SourceGraphic" in2="BackgroundImageFix" result="shape"/>
<feColorMatrix in="SourceAlpha" type="matrix" values="0 0 0 0 0 0 0 0 0 0 0 0 0 0 0 0 0 0 127 0" result="hardAlpha"/>
<feOffset/>
<feGaussianBlur stdDeviation="1"/>
<feComposite in2="hardAlpha" operator="arithmetic" k2="-1" k3="1"/>
<feColorMatrix type="matrix" values="0 0 0 0 0 0 0 0 0 0 0 0 0 0 0 0 0 0 0.25 0"/>
<feBlend mode="normal" in2="shape" result="effect1_innerShadow_263_121"/>
</filter>
</defs>
</svg>
