<svg width="41" height="41" viewBox="0 0 41 41" fill="none" xmlns="http://www.w3.org/2000/svg">
<g clip-path="url(#clip0_269_295)">
<path d="M31.3906 0H9.60938C4.30226 0 0 4.30226 0 9.60938V31.3906C0 36.6977 4.30226 41 9.60938 41H31.3906C36.6977 41 41 36.6977 41 31.3906V9.60938C41 4.30226 36.6977 0 31.3906 0Z" fill="url(#paint0_linear_269_295)"/>
<path d="M12.6905 11.0091C11.0911 13.3503 11.2904 16.3957 12.5088 18.8802L12.5985 19.0571L12.6591 19.1693C12.6703 19.191 12.6831 19.2125 12.6948 19.2336C12.7159 19.273 12.7371 19.3108 12.7553 19.3496L12.8719 19.5533L12.9384 19.6654L13.0737 19.881L13.1343 19.9718C13.1948 20.0687 13.2632 20.1649 13.3304 20.2599L13.3359 20.2674C13.3465 20.2827 13.3583 20.2977 13.3663 20.3129C13.4243 20.3946 13.4872 20.4752 13.5478 20.5551L13.615 20.6422L13.78 20.8488L13.8429 20.9257C13.918 21.0162 13.9947 21.1054 14.0731 21.1933L14.0779 21.1981C14.0809 21.202 14.084 21.2042 14.087 21.208C14.1628 21.2938 14.2407 21.3775 14.3207 21.4593L14.3958 21.5362L14.5825 21.7228L14.6588 21.7966C14.7428 21.877 14.8281 21.956 14.9145 22.0336L14.9631 22.0759L15.1953 22.2758L15.2914 22.354L15.4852 22.5053L15.5888 22.5855L15.8849 22.8019C15.8925 22.807 15.899 22.8125 15.9067 22.8176C15.9762 22.8661 16.0469 22.9131 16.1176 22.96L16.2091 23.022L16.5397 23.2279L16.6311 23.2803L16.8793 23.4219C16.9247 23.4467 16.9711 23.4704 17.0164 23.494L17.1939 23.5848L17.2347 23.6048L17.3074 23.6405L17.5888 23.7731L17.6486 23.8034C17.7572 23.8515 17.8665 23.8978 17.9767 23.9422L18.0567 23.9744L18.3662 24.0912L18.405 24.1051C18.5194 24.1455 18.6344 24.1839 18.7501 24.2203L18.8334 24.2456C18.9545 24.2819 19.068 24.3253 19.1898 24.3485C26.9237 25.7884 29.1709 19.6182 29.1709 19.6182C27.2841 22.1217 23.9349 22.7816 20.7619 22.0469C20.6416 22.0167 20.525 21.9813 20.4076 21.9459L20.3192 21.9156C20.205 21.8798 20.0914 21.8422 19.9784 21.8027L19.9314 21.7854C19.8307 21.7491 19.7305 21.7112 19.6308 21.6719L19.5461 21.6379C19.437 21.5942 19.3288 21.5484 19.2215 21.5005L19.1568 21.4715L18.8831 21.3413L18.8044 21.3025C18.7333 21.2668 18.6626 21.2302 18.5924 21.1927L18.4511 21.1169C18.3657 21.0702 18.2811 21.0219 18.1974 20.972L18.1117 20.9234C18.0005 20.8566 17.8903 20.788 17.7812 20.7176C17.7509 20.6979 17.7218 20.6771 17.6918 20.6571L17.4565 20.4979L17.381 20.4435L17.1585 20.2799L17.0597 20.2042L16.859 20.0443L16.7695 19.9718L16.5196 19.7599C16.51 19.7515 16.4999 19.7437 16.4894 19.7365C16.4006 19.6567 16.313 19.5756 16.2267 19.4931L16.1527 19.4205L15.9637 19.2322L15.8901 19.1564C15.8113 19.0747 15.7341 18.9916 15.6585 18.9071C15.6548 18.9028 15.6505 18.8989 15.6469 18.8949C15.5669 18.8056 15.4885 18.7148 15.412 18.6225L15.3505 18.548L15.181 18.3352L15.1189 18.2565L14.9237 17.9916C13.162 15.5441 12.5322 12.1687 13.9368 9.39636L12.6905 11.0091ZM17.6551 9.03665C16.4988 10.7319 16.5614 13.0005 17.4636 14.7933C17.6145 15.0943 17.7854 15.3848 17.9751 15.663C18.1484 15.9158 18.3406 16.2171 18.5706 16.4199C18.6539 16.5107 18.741 16.6015 18.83 16.6942C18.8525 16.7174 18.8755 16.7395 18.8984 16.7629C18.9849 16.8486 19.0733 16.9323 19.1637 17.0139L19.1745 17.0235C19.2763 17.1139 19.3804 17.2018 19.4867 17.2869L19.557 17.3425C19.6627 17.4258 19.7706 17.5061 19.8808 17.5835C19.8837 17.586 19.8868 17.5884 19.89 17.5906C19.9383 17.6247 19.9883 17.6571 20.0376 17.6897C20.0613 17.7056 20.0836 17.7222 20.1073 17.737C20.1863 17.7887 20.2663 17.8386 20.3474 17.8869L20.3813 17.9069L20.5932 18.028C20.618 18.0422 20.6433 18.0546 20.6688 18.0679L20.8201 18.146C20.8278 18.15 20.8354 18.1529 20.8426 18.1566C20.9446 18.208 21.0473 18.2565 21.1523 18.3035C21.1747 18.3134 21.1976 18.3225 21.2207 18.3321C21.3048 18.3687 21.3896 18.4037 21.475 18.4372L21.5839 18.4779C21.6612 18.5065 21.739 18.534 21.8171 18.5605L21.9223 18.5946C22.0335 18.63 22.1434 18.6742 22.2593 18.6939C28.2306 19.7015 29.6095 15.0188 29.6095 15.0188C28.3669 16.8412 25.9605 17.7114 23.3921 17.0326C23.2785 17.0023 23.1658 16.969 23.054 16.9327C23.0197 16.9221 22.9863 16.9109 22.9523 16.9024C22.873 16.8763 22.7942 16.8486 22.7159 16.8194L22.6089 16.7789C22.5233 16.7487 22.4385 16.7109 22.3548 16.6745C22.3317 16.6644 22.3086 16.6554 22.2861 16.6449C22.1807 16.5987 22.0767 16.5496 21.9742 16.4974C21.9215 16.4711 21.8698 16.4436 21.8179 16.4162L21.7278 16.3691C21.6612 16.3324 21.5953 16.2946 21.5301 16.2555L21.4829 16.2253C21.4023 16.177 21.3226 16.1274 21.2438 16.0763C21.2194 16.0605 21.1959 16.046 21.1717 16.0273L21.0167 15.9229C20.9072 15.8454 20.7996 15.7652 20.6939 15.6825L20.6212 15.6244C19.4973 14.7204 18.606 13.4853 18.1825 12.0846C17.7384 10.6315 17.8344 9.00125 18.6063 7.67804L17.6551 9.03665ZM21.8298 7.56305C21.148 8.58501 21.0812 9.85409 21.5574 10.9827C22.0562 12.1805 23.0785 13.1205 24.2715 13.5659C24.3207 13.5846 24.37 13.6011 24.4229 13.6182L24.4884 13.6394C24.5585 13.6618 24.6285 13.6877 24.7009 13.7018C27.9982 14.3505 28.8923 11.9786 29.1303 11.6294C28.3469 12.7784 27.0304 13.0542 25.415 12.6549C25.2879 12.623 25.1471 12.5761 25.0214 12.5321C24.8634 12.4747 24.7085 12.4091 24.5574 12.3355C24.27 12.1944 23.9974 12.025 23.7436 11.8296C22.295 10.7125 21.3969 8.58197 22.3402 6.84683M14.548 29.2575L14.3247 30.0495L14.548 29.2578V29.2575ZM21.1123 27.4442H20.089C20.0601 27.4453 20.0322 27.4557 20.0096 27.4739C19.9871 27.4922 19.971 27.5172 19.9638 27.5453L19.2372 30.9077C19.2299 30.9357 19.2139 30.9606 19.1914 30.9788C19.1689 30.9969 19.1411 31.0073 19.1122 31.0085H18.3879C17.671 31.0085 17.754 30.513 17.9034 29.8339L17.908 29.8134L17.9948 29.3502L18.0323 29.1595L18.363 27.5453C18.3662 27.5329 18.3664 27.5201 18.3636 27.5076C18.3609 27.4952 18.3553 27.4836 18.3473 27.4738C18.3392 27.4639 18.329 27.4561 18.3174 27.4509C18.3058 27.4457 18.2931 27.4433 18.2804 27.4439H17.2299C17.201 27.4448 17.1731 27.4552 17.1506 27.4735C17.128 27.4917 17.1121 27.5168 17.1052 27.5449L16.6319 29.7894C16.3717 30.9773 16.4407 32.1102 17.855 32.1456L17.8959 32.1464H20.1155C20.1444 32.1453 20.1722 32.1348 20.1948 32.1166C20.2173 32.0984 20.2334 32.0734 20.2405 32.0453L21.1976 27.5449C21.2098 27.4894 21.1725 27.4439 21.116 27.4439L21.1123 27.4442ZM25.1951 31.0203C25.2522 31.0203 25.2859 31.0657 25.2778 31.1214L25.1785 31.6073L25.1951 31.0203Z" fill="#F9F9F9"/>
<path d="M22.4576 30.3949C22.4568 30.3416 22.5173 30.2502 22.5742 30.2502L22.4464 30.2481C22.3858 30.8275 22.4576 30.3949 22.4576 30.3949ZM25.1951 31.0203C25.2522 31.0203 25.286 31.0657 25.2778 31.1214L25.1622 31.6863L25.1951 31.0203ZM23.2914 32.2045H23.2435H23.2975H23.2914ZM8.24645 30.4069L8.40549 29.7023L8.22387 30.5075L8.20257 30.6086L8.24677 30.4065L8.24645 30.4069ZM10.1494 27.4327H9.02545C8.9964 27.4338 8.96847 27.4442 8.94576 27.4624C8.92305 27.4805 8.90675 27.5055 8.89925 27.5336L8.68608 28.4719C8.68254 28.4841 8.68197 28.4969 8.68443 28.5093C8.68688 28.5218 8.69228 28.5334 8.70018 28.5433C8.70808 28.5532 8.71824 28.561 8.7298 28.5662C8.74137 28.5713 8.754 28.5736 8.76664 28.5728H9.89942C9.92838 28.5718 9.95621 28.5613 9.97878 28.5432C10.0013 28.525 10.0174 28.5 10.0247 28.4719L10.2306 27.5313C10.2426 27.4761 10.2063 27.4306 10.1489 27.4306L10.1494 27.4327ZM6.6396 34.0511L7.56659 34.0585C7.29288 34.0585 6.84108 34.0534 6.63928 34.051L6.6396 34.0511Z" fill="#F9F9F9"/>
<path d="M9.82367 28.8964H8.69056C8.66151 28.8975 8.63358 28.9079 8.61087 28.9261C8.58816 28.9442 8.57186 28.9692 8.56436 28.9973L8.24645 30.4066L8.20225 30.6089L7.89955 32.0478C7.8846 32.115 7.86645 32.1813 7.8451 32.2467C7.8451 32.2467 7.63321 32.8764 7.27783 32.8694L6.92516 32.8628C6.89623 32.8636 6.86831 32.8736 6.84544 32.8913C6.82257 32.9091 6.80595 32.9336 6.798 32.9614L6.56337 33.9491C6.5597 33.9612 6.55897 33.974 6.56126 33.9864C6.56354 33.9988 6.56877 34.0105 6.5765 34.0205C6.58424 34.0305 6.59425 34.0384 6.6057 34.0437C6.61716 34.0491 6.62971 34.0515 6.64233 34.051L7.56963 34.0585C8.4585 34.0585 8.92679 33.5659 9.22725 32.1491L9.90839 29.0008C9.92056 28.9455 9.88357 28.9 9.82671 28.9L9.82367 28.8964ZM25.9171 32.1471C25.8603 32.1471 25.8263 32.1017 25.8355 32.046L26.6876 28.0543L25.9171 32.1471Z" fill="#F9F9F9"/>
<path d="M25.8478 32.0966C25.8409 32.0687 25.8449 32.0005 25.8569 31.9451L26.2613 30.0501L25.8351 32.046C25.823 32.1017 25.86 32.147 25.9168 32.147H26.0204C25.9636 32.147 25.8545 32.1243 25.8478 32.0966ZM27.0345 32.1243C27.0036 32.1365 26.9316 32.147 26.8747 32.147H26.9782C27.0071 32.146 27.0348 32.1355 27.0572 32.1172C27.0796 32.0989 27.0954 32.0738 27.1023 32.0457L27.1229 31.9446C27.1117 32.0002 27.0624 32.112 27.0321 32.1243H27.0345ZM30.6363 28.3216L30.6832 28.5153C30.6964 28.5708 30.6603 28.6158 30.6036 28.6161M27.426 30.4419L27.4678 30.2409L27.6303 29.4795L27.4463 30.3416L27.426 30.4415V30.4419ZM26.7016 27.9886L26.6662 28.155L26.2616 30.0501L26.688 28.0543L26.7016 27.9889V27.9886Z" fill="#F9F9F9"/>
<path d="M30.6835 28.5154L30.6366 28.3216L30.5671 28.0189C30.475 27.6616 30.205 27.4548 29.6183 27.4548L26.9179 27.453C26.889 27.454 26.8612 27.4644 26.8387 27.4826C26.8162 27.5009 26.8003 27.526 26.7933 27.5541L26.7515 27.7519L26.691 28.0506L25.8603 31.9416C25.8481 31.9973 25.8443 32.0627 25.8511 32.0929C25.858 32.1232 25.9671 32.1435 26.0238 32.1435H26.8774C26.9343 32.1435 27.006 32.1331 27.0373 32.1208C27.0685 32.1083 27.1141 31.9997 27.1281 31.9409L27.4521 30.3383L27.7986 28.7144C27.8059 28.6865 27.8219 28.6616 27.8444 28.6434C27.8668 28.6253 27.8946 28.6149 27.9234 28.6137L30.6094 28.6124C30.6661 28.6124 30.7021 28.5671 30.689 28.5117L30.6835 28.5154ZM34.1416 26.7616L33.9349 26.7624H33.0752C33.0437 26.7645 33.013 26.7732 32.9852 26.7879C32.9573 26.8026 32.9328 26.823 32.9134 26.8478L31.0123 29.6329C30.9803 29.6798 30.9436 29.673 30.9307 29.6179L30.7907 29.0041C30.7832 28.9761 30.7668 28.9512 30.7441 28.933C30.7214 28.9149 30.6935 28.9045 30.6645 28.9034H29.4425C29.3855 28.9034 29.3517 28.9479 29.3674 29.0027L29.9122 30.9214C29.9279 30.9758 29.9289 31.0657 29.9153 31.1211L29.6731 32.0497C29.669 32.0616 29.6679 32.0743 29.6699 32.0867C29.6719 32.0991 29.6771 32.1109 29.6848 32.1208C29.6926 32.1307 29.7027 32.1385 29.7143 32.1435C29.7258 32.1486 29.7384 32.1507 29.7509 32.1498H30.9617C30.991 32.1486 31.0191 32.1383 31.0422 32.1204C31.0653 32.1025 31.0823 32.0778 31.0908 32.0498L31.333 31.1214C31.3519 31.0561 31.3817 30.9942 31.4207 30.9387L34.5103 26.8419C34.5446 26.7964 34.5262 26.7596 34.4692 26.76L34.1453 26.7623L34.1416 26.7616ZM24.4314 29.1643C24.4242 29.2248 24.3673 29.2703 24.3103 29.2703H22.7603C22.7068 29.2703 22.6796 29.234 22.6877 29.1885L22.6889 29.1803L22.6959 29.1541C22.8473 28.7606 23.1455 28.5022 23.7118 28.5022C24.3497 28.5022 24.4741 28.814 24.4309 29.1643H24.4314ZM23.9767 27.3758C21.9879 27.3758 21.5165 28.5831 21.2523 29.8016C20.9877 31.0436 21.0106 32.2052 23.0686 32.2052H23.3948L23.6461 32.2042L24.9557 32.1964C24.9844 32.1951 25.012 32.1845 25.0342 32.1662C25.0564 32.1479 25.0721 32.123 25.0789 32.095L25.2778 31.1227C25.2893 31.067 25.2522 31.0215 25.1951 31.0215H23.3449C22.6093 31.0215 22.3905 30.8259 22.4709 30.2511H25.4287C25.4525 30.2509 25.4756 30.2435 25.4952 30.2299C25.5147 30.2163 25.5297 30.1971 25.5382 30.1749C25.5416 30.1666 25.544 30.158 25.5454 30.1491C25.9844 28.4933 25.8585 27.3771 23.9773 27.3771L23.9767 27.3758ZM14.5758 29.1577L14.548 29.2567L14.3247 30.0485L14.1013 30.8399C14.092 30.8677 14.0744 30.8921 14.051 30.9098C14.0275 30.9275 13.9993 30.9378 13.97 30.9392H12.7874C11.8906 30.9392 11.6724 30.2378 11.8906 29.2034C12.1086 28.1454 12.537 27.4875 13.4195 27.421C14.6255 27.3302 14.8665 28.1784 14.5758 29.1574V29.1577ZM15.3865 30.8786C15.3865 30.8786 15.9436 29.5255 16.0707 28.7436C16.2432 27.697 15.7197 26.1795 13.6959 26.1795C11.6836 26.1795 10.8099 27.6282 10.4768 29.2067C10.1437 30.7929 10.5802 32.1844 12.5806 32.1735L15.6338 32.1623C15.6631 32.1609 15.6913 32.1504 15.7144 32.1324C15.7376 32.1144 15.7546 32.0897 15.7632 32.0617L16.0204 31.0815C16.0245 31.0697 16.0256 31.057 16.0237 31.0446C16.0217 31.0322 16.0168 31.0205 16.0092 31.0104C16.0016 31.0004 15.9915 30.9924 15.98 30.9873C15.9685 30.9821 15.9558 30.9799 15.9432 30.981L15.4508 30.9779C15.4024 30.9776 15.375 30.9465 15.3805 30.9054C15.3817 30.8975 15.3837 30.8898 15.3865 30.8823V30.8786Z" fill="#F9F9F9"/>
<path d="M25.3474 29.9733C25.3474 29.9912 25.3403 30.0085 25.3276 30.0212C25.3149 30.0339 25.2976 30.0411 25.2796 30.0411C25.2616 30.0411 25.2444 30.0339 25.2317 30.0212C25.2189 30.0085 25.2118 29.9912 25.2118 29.9733C25.2118 29.9553 25.2189 29.938 25.2317 29.9253C25.2444 29.9126 25.2616 29.9054 25.2796 29.9054C25.2976 29.9054 25.3149 29.9126 25.3276 29.9253C25.3403 29.938 25.3474 29.9553 25.3474 29.9733Z" fill="#F9F9F9"/>
</g>
<defs>
<linearGradient id="paint0_linear_269_295" x1="0" y1="0" x2="41" y2="41" gradientUnits="userSpaceOnUse">
<stop stop-color="#FF5C00"/>
<stop offset="1" stop-color="#FF0F00"/>
</linearGradient>
<clipPath id="clip0_269_295">
<rect width="41" height="41" fill="white"/>
</clipPath>
</defs>
</svg>
