<svg width="41" height="41" viewBox="0 0 41 41" fill="none" xmlns="http://www.w3.org/2000/svg">
<g filter="url(#filter0_i_269_190)">
<rect width="41" height="41" rx="10" fill="#F5DE19"/>
<path d="M25.981 29.055C26.22 29.5393 26.5907 29.9463 27.0506 30.2294C27.5105 30.5124 28.041 30.6599 28.581 30.655C29.671 30.655 30.368 30.11 30.368 29.355C30.368 28.455 29.652 28.133 28.452 27.608L27.794 27.326C25.894 26.517 24.634 25.504 24.634 23.362C24.634 21.389 26.134 19.886 28.487 19.886C29.2487 19.8311 30.0097 20.0016 30.6751 20.3763C31.3405 20.751 31.881 21.3132 32.229 21.993L30.172 23.308C30.0379 22.971 29.8046 22.6827 29.503 22.4812C29.2014 22.2798 28.8457 22.1747 28.483 22.18C28.3248 22.1641 28.165 22.1814 28.0138 22.2308C27.8626 22.2801 27.7233 22.3604 27.6049 22.4665C27.4865 22.5726 27.3914 22.7022 27.3258 22.8471C27.2603 22.992 27.2256 23.149 27.224 23.308C27.224 24.097 27.713 24.417 28.842 24.908L29.5 25.19C31.736 26.149 33 27.126 33 29.323C33 31.692 31.139 32.99 28.64 32.99C27.6664 33.0514 26.6958 32.83 25.8451 32.3526C24.9944 31.8752 24.2998 31.162 23.845 30.299L25.981 29.055ZM16.686 29.283C17.099 30.016 17.475 30.636 18.379 30.636C19.243 30.636 19.789 30.298 19.789 28.983V20.036H22.42V29.018C22.42 31.742 20.82 32.982 18.491 32.982C17.6678 33.027 16.8502 32.8218 16.1457 32.3935C15.4412 31.9651 14.8829 31.3336 14.544 30.582L16.686 29.283Z" fill="black"/>
</g>
<defs>
<filter id="filter0_i_269_190" x="0" y="0" width="41" height="41" filterUnits="userSpaceOnUse" color-interpolation-filters="sRGB">
<feFlood flood-opacity="0" result="BackgroundImageFix"/>
<feBlend mode="normal" in="SourceGraphic" in2="BackgroundImageFix" result="shape"/>
<feColorMatrix in="SourceAlpha" type="matrix" values="0 0 0 0 0 0 0 0 0 0 0 0 0 0 0 0 0 0 127 0" result="hardAlpha"/>
<feOffset/>
<feGaussianBlur stdDeviation="1"/>
<feComposite in2="hardAlpha" operator="arithmetic" k2="-1" k3="1"/>
<feColorMatrix type="matrix" values="0 0 0 0 0 0 0 0 0 0 0 0 0 0 0 0 0 0 0.25 0"/>
<feBlend mode="normal" in2="shape" result="effect1_innerShadow_269_190"/>
</filter>
</defs>
</svg>
