<svg width="41" height="41" viewBox="0 0 41 41" fill="none" xmlns="http://www.w3.org/2000/svg">
<g clip-path="url(#clip0_269_215)">
<path d="M31.3906 0H9.60938C4.30226 0 0 4.30226 0 9.60938V31.3906C0 36.6977 4.30226 41 9.60938 41H31.3906C36.6977 41 41 36.6977 41 31.3906V9.60938C41 4.30226 36.6977 0 31.3906 0Z" fill="#242938"/>
<mask id="mask0_269_215" style="mask-type:luminance" maskUnits="userSpaceOnUse" x="6" y="6" width="29" height="29">
<path d="M6.08594 6.08594H34.9141V34.9141H6.08594V6.08594Z" fill="white"/>
</mask>
<g mask="url(#mask0_269_215)">
<path fill-rule="evenodd" clip-rule="evenodd" d="M32.64 28.5415C31.0721 28.4979 29.8557 28.6585 28.8363 29.0874C28.5427 29.2053 28.0717 29.2053 28.033 29.5748C28.1899 29.7298 28.2088 29.9835 28.3464 30.1984C28.5813 30.5884 28.9936 31.1137 29.3658 31.3863L30.6204 32.2829C31.385 32.75 32.2476 33.0231 32.9925 33.4908C33.424 33.7637 33.8551 34.1144 34.2866 34.407C34.5063 34.5629 34.6394 34.8167 34.9141 34.9136V34.8547C34.777 34.6799 34.7374 34.4267 34.6008 34.231L34.0119 33.6663C33.4438 32.9065 32.7375 32.2435 31.973 31.6985C31.3455 31.2697 29.9736 30.6853 29.7186 29.9648L29.68 29.921C30.1107 29.8775 30.6204 29.7258 31.0325 29.6089C31.6996 29.4342 32.3069 29.4726 32.9925 29.2974L33.9342 29.0245V28.8498C33.5812 28.4992 33.3264 28.0314 32.9542 27.7005C31.9545 26.8432 30.8559 26.0051 29.7186 25.3037C29.111 24.9142 28.3265 24.6604 27.6796 24.3298C27.4437 24.2128 27.0522 24.1543 26.9151 23.9595C26.5613 23.5316 26.3657 22.9659 26.1109 22.459L24.5034 19.0689C24.1506 18.3089 23.9344 17.549 23.5037 16.8477C21.484 13.5351 19.2878 11.5285 15.9155 9.56022C15.1905 9.15102 14.3279 8.97501 13.4107 8.76104L11.9405 8.68257C11.6262 8.54627 11.3128 8.17583 11.0383 8.0003C9.92072 7.29881 7.03855 5.77925 6.21439 7.78201C5.68507 9.04836 6.99899 10.2952 7.44503 10.9385C7.77895 11.3866 8.20961 11.8931 8.44552 12.3998C8.57733 12.7308 8.62138 13.0819 8.75895 13.4326C9.07221 14.2898 9.36658 15.245 9.77834 16.0441C9.99808 16.4533 10.2289 16.8826 10.5034 17.2525C10.6603 17.4708 10.935 17.5644 10.9934 17.9149C10.7188 18.3049 10.6999 18.8888 10.5429 19.3767C9.8368 21.5785 10.1115 24.3063 11.1112 25.9274C11.4254 26.4143 12.1658 27.4864 13.1705 27.0768C14.0528 26.7261 13.8559 25.6156 14.1107 24.6412C14.17 24.4077 14.1306 24.2517 14.2478 24.0954V24.1391L15.052 25.7562C15.6598 26.7109 16.7189 27.7048 17.6007 28.3677C18.0709 28.7184 18.4436 29.3229 19.0315 29.5368V29.4779H18.9929C18.8751 29.3032 18.6984 29.2245 18.5416 29.0882C18.1888 28.7376 17.7967 28.3088 17.5221 27.9193C16.699 26.8283 15.974 25.6199 15.3266 24.3731C15.0126 23.7691 14.7379 23.1066 14.4839 22.5026C14.3652 22.2686 14.3652 21.9174 14.1697 21.8013C13.8751 22.2292 13.4446 22.6005 13.228 23.1263C12.8553 23.9639 12.8167 24.9967 12.6796 26.0685C12.6005 26.088 12.6355 26.0685 12.6005 26.112C11.9738 25.9567 11.7576 25.3129 11.5226 24.7679C10.9345 23.3844 10.836 21.1632 11.3458 19.5653C11.4829 19.1561 12.0718 17.8701 11.8367 17.4804C11.7182 17.1101 11.3269 16.8962 11.1107 16.6036C10.8559 16.2333 10.5822 15.766 10.4055 15.3568C9.9353 14.265 9.70019 13.0574 9.18993 11.9662C8.95402 11.4595 8.54274 10.9332 8.20913 10.4661C7.83645 9.93979 7.42565 9.56935 7.13128 8.94618C7.03327 8.72789 6.89617 8.38115 7.05296 8.147C7.09172 7.99117 7.17068 7.92871 7.32683 7.8938C7.58148 7.67534 8.30763 7.95225 8.56244 8.06837C9.28747 8.36097 9.89526 8.63356 10.5031 9.04228C10.7777 9.23703 11.0721 9.60747 11.4249 9.70532H11.8372C12.4646 9.84146 13.17 9.74889 13.7574 9.92362C14.7968 10.2555 15.7376 10.742 16.5813 11.2686C19.1494 12.8859 21.2675 15.1851 22.6981 17.9329C22.9333 18.381 23.0313 18.7902 23.2475 19.2578C23.6597 20.213 24.1695 21.1869 24.5803 22.1227C24.9925 23.0385 25.3844 23.9744 25.9725 24.7342C26.2669 25.1434 27.4428 25.3574 27.9719 25.5718C28.3643 25.7466 28.9716 25.9038 29.3254 26.1178C29.9915 26.527 30.6582 26.9947 31.2852 27.4428C31.5985 27.676 32.5795 28.1633 32.6378 28.552L32.64 28.5415ZM12.6456 11.6093C12.3748 11.6069 12.1048 11.6397 11.8424 11.7066V11.7504H11.881C12.038 12.0622 12.3127 12.2766 12.5085 12.5495L12.9598 13.4848L12.9986 13.4413C13.2731 13.2465 13.4107 12.9347 13.4107 12.4675C13.293 12.3312 13.2736 12.1945 13.1756 12.0582C13.0579 11.8634 12.8031 11.7656 12.6456 11.6102V11.6093Z" fill="#F9F9F9"/>
</g>
</g>
<defs>
<clipPath id="clip0_269_215">
<rect width="41" height="41" fill="white"/>
</clipPath>
</defs>
</svg>
