<svg width="41" height="41" viewBox="0 0 41 41" fill="none" xmlns="http://www.w3.org/2000/svg">
<g clip-path="url(#clip0_269_254)">
<path d="M31.3906 0H9.60938C4.30226 0 0 4.30226 0 9.60938V31.3906C0 36.6977 4.30226 41 9.60938 41H31.3906C36.6977 41 41 36.6977 41 31.3906V9.60938C41 4.30226 36.6977 0 31.3906 0Z" fill="#512BD4"/>
<path d="M3.85208 27.0573C3.49386 27.0573 3.18941 26.9401 2.93871 26.7059C2.6879 26.4656 2.5625 26.1801 2.5625 25.8495C2.5625 25.5131 2.6879 25.2247 2.93871 24.9842C3.18941 24.744 3.49386 24.6238 3.85208 24.6237C4.21627 24.6237 4.52377 24.7439 4.77458 24.9842C5.03126 25.2246 5.15959 25.513 5.15959 25.8495C5.15959 26.1801 5.03126 26.4656 4.77458 26.7059C4.52377 26.9401 4.21627 27.0573 3.85208 27.0573ZM18.1724 26.859H15.8441L9.70947 17.3589C9.55657 17.1229 9.42759 16.8722 9.32446 16.6106H9.27064C9.31837 16.8871 9.34223 17.479 9.34223 18.3863V26.859H7.28246V13.9336H9.76312L15.6918 23.2086C15.9426 23.5932 16.1038 23.8576 16.1755 24.0018H16.2112C16.1515 23.6593 16.1216 23.0794 16.1216 22.262V13.9336H18.1724V26.859ZM28.2032 26.859H20.9939V13.9336H27.9167V15.7544H23.1254V19.4138H27.5406V21.2255H23.1254V25.0473H28.2032V26.859ZM38.4489 15.7544H34.7592V26.859H32.6277V15.7544H28.947V13.9336H38.4489V15.7544Z" fill="#F9F9F9"/>
</g>
<defs>
<clipPath id="clip0_269_254">
<rect width="41" height="41" fill="white"/>
</clipPath>
</defs>
</svg>
