<svg width="41" height="41" viewBox="0 0 41 41" fill="none" xmlns="http://www.w3.org/2000/svg">
<g clip-path="url(#clip0_269_260)">
<mask id="mask0_269_260" style="mask-type:luminance" maskUnits="userSpaceOnUse" x="0" y="0" width="41" height="41">
<path d="M0 0H41V41H0V0Z" fill="white"/>
</mask>
<g mask="url(#mask0_269_260)">
<path d="M31.3906 0H9.60938C4.30228 0 0 4.30228 0 9.60938V31.3906C0 36.6977 4.30228 41 9.60938 41H31.3906C36.6977 41 41 36.6977 41 31.3906V9.60938C41 4.30228 36.6977 0 31.3906 0Z" fill="#242938"/>
<mask id="mask1_269_260" style="mask-type:luminance" maskUnits="userSpaceOnUse" x="4" y="4" width="33" height="33">
<path d="M4.48438 4.48438H36.5156V36.5156H4.48438V4.48438Z" fill="white"/>
</mask>
<g mask="url(#mask1_269_260)">
<mask id="mask2_269_260" style="mask-type:luminance" maskUnits="userSpaceOnUse" x="4" y="4" width="33" height="33">
<path d="M4.49689 4.49686H36.5281V36.5281H4.49689V4.49686Z" fill="white"/>
</mask>
<g mask="url(#mask2_269_260)">
<path d="M28.4015 34.2384C28.2075 35.7023 26.7749 36.8409 25.3548 36.4468C23.3277 35.89 20.9817 35.0204 18.8734 34.8577L15.6391 34.6075C15.1175 34.5713 14.6275 34.3441 14.2627 33.9695L8.69472 28.2325C8.39604 27.927 8.19632 27.5386 8.12156 27.1179C8.0468 26.6972 8.10047 26.2638 8.27559 25.874C8.27559 25.874 11.7164 18.3041 11.8479 17.9099C11.9728 17.5158 12.4485 14.0813 12.7236 12.242C12.7989 11.7478 13.0366 11.3035 13.4118 10.972L19.9995 5.04123C20.3268 4.74727 20.7369 4.56167 21.1737 4.50983C21.6105 4.45799 22.0527 4.54246 22.4396 4.75167C22.6965 4.89042 22.9222 5.08051 23.1025 5.31013L28.6329 12.3421C28.9405 12.7446 29.1075 13.2369 29.1084 13.7435C29.1084 15.076 29.221 17.8098 29.9593 19.5741C30.6787 21.282 31.9925 23.14 32.6807 24.0471C32.8116 24.2168 32.8892 24.4215 32.9037 24.6354C32.9182 24.8492 32.8689 25.0625 32.762 25.2483C31.8692 26.7465 30.9345 28.2194 29.9593 29.6653C29.0208 31.0604 28.5892 32.787 28.3952 34.2384H28.4015Z" fill="#6C31E3"/>
<path d="M14.8633 34.4073C17.4534 29.1521 17.3783 25.386 16.2772 22.7084C15.2637 20.2309 13.3806 18.6732 11.8979 17.7035C11.8624 17.8423 11.8163 17.9783 11.7601 18.1101L8.27561 25.8803C8.09971 26.2694 8.04501 26.7025 8.11865 27.1231C8.19229 27.5438 8.39086 27.9325 8.68849 28.2387L14.2627 33.9757C14.4357 34.1557 14.639 34.3039 14.8633 34.4136V34.4073Z" fill="url(#paint0_radial_269_260)"/>
<path d="M21.9014 23.7406C22.602 23.8157 23.2902 23.9659 23.9534 24.2161C26.0805 25.0106 28.0198 26.7937 29.6151 30.2407C29.7277 30.0468 29.8403 29.8528 29.9655 29.6653C30.9396 28.2186 31.8742 26.7457 32.7683 25.2483C32.8777 25.0633 32.9284 24.8497 32.9139 24.6352C32.8993 24.4208 32.8202 24.2158 32.6869 24.0471C31.9987 23.1338 30.685 21.282 29.9655 19.5741C29.2272 17.8099 29.1209 15.0697 29.1146 13.7435C29.1146 13.2366 28.9521 12.7425 28.6391 12.3421L23.1025 5.31014C23.0724 5.27362 23.0411 5.23818 23.0087 5.2038C23.373 6.2947 23.4164 7.46727 23.1338 8.58213C22.8658 9.48233 22.4964 10.3492 22.0327 11.1659L21.5823 12.0543C20.8602 13.4293 20.446 14.945 20.3687 16.4961C20.2936 18.3353 20.669 20.6501 21.9014 23.7406Z" fill="url(#paint1_radial_269_260)"/>
<path d="M21.9014 23.7406C20.669 20.6501 20.2873 18.3353 20.3687 16.4898C20.446 14.9387 20.8602 13.423 21.5823 12.0481C21.7262 11.7478 21.8826 11.4537 22.0327 11.1659C22.477 10.2963 22.9086 9.47675 23.1338 8.57588C23.4164 7.46102 23.373 6.28844 23.0087 5.19754C22.6291 4.77927 22.0992 4.52858 21.5351 4.50045C20.971 4.47232 20.4188 4.66904 19.9995 5.04747L13.4056 10.9781C13.0378 11.3095 12.7967 11.7584 12.7236 12.2481L11.9228 17.5659L11.8916 17.7097C13.3806 18.6795 15.2699 20.2372 16.2772 22.7146C16.4853 23.2164 16.6486 23.7356 16.7652 24.2662C18.5168 23.8407 20.2498 23.578 21.9014 23.7468V23.7406Z" fill="url(#paint2_radial_269_260)"/>
<path d="M25.3549 36.453C26.775 36.8409 28.2076 35.7023 28.4015 34.2383C28.5631 32.8438 28.9742 31.4897 29.6152 30.2407C28.0136 26.7999 26.0805 25.0106 23.9597 24.2161C21.7075 23.3778 19.2551 23.6531 16.7652 24.26C17.3219 26.7874 16.9904 30.0969 14.8633 34.4073C15.1135 34.5199 15.3701 34.595 15.6452 34.6138C15.6452 34.6138 17.1718 34.7388 18.9986 34.8703C20.8128 34.9954 23.528 35.94 25.3549 36.4467V36.453Z" fill="url(#paint3_radial_269_260)"/>
<path fill-rule="evenodd" clip-rule="evenodd" d="M20.3812 16.371C20.2998 18.1977 20.5312 20.2998 21.7638 23.3841L21.3759 23.3527C20.2686 20.1308 20.0307 18.4731 20.1121 16.6212C20.207 15.0451 20.6424 13.5083 21.3884 12.1168C21.5385 11.8102 21.8889 11.2346 22.0453 10.9406C22.4895 10.0836 22.7898 9.62682 23.0463 8.83869C23.4028 7.74387 23.3277 7.21823 23.284 6.70541C23.5718 8.57588 22.4895 10.2087 21.6762 11.8604C20.9283 13.2523 20.4868 14.7881 20.3812 16.3648V16.371Z" fill="url(#paint4_radial_269_260)"/>
<path fill-rule="evenodd" clip-rule="evenodd" d="M16.64 22.8397C16.7902 23.1777 16.9278 23.4528 17.0154 23.8721L16.6838 23.9408C16.5525 23.453 16.446 23.1025 16.2585 22.6897C15.1447 20.0621 13.3619 18.7107 11.8979 17.716C13.6622 18.667 15.4764 20.156 16.6337 22.8397H16.64Z" fill="url(#paint5_radial_269_260)"/>
<path fill-rule="evenodd" clip-rule="evenodd" d="M17.0341 24.1974C17.6473 27.0752 16.9591 30.7162 14.932 34.2633C16.6274 30.7474 17.4471 27.3755 16.7652 24.2536L17.0341 24.1974Z" fill="url(#paint6_radial_269_260)"/>
<path fill-rule="evenodd" clip-rule="evenodd" d="M24.0346 23.9408C27.3566 25.1858 28.6391 27.9197 29.5964 30.197C28.4077 27.8134 26.7687 25.1734 23.9158 24.1911C21.7386 23.4528 19.9057 23.5404 16.7652 24.2536L16.6963 23.9408C20.0245 23.1839 21.7638 23.0963 24.0346 23.9408Z" fill="url(#paint7_radial_269_260)"/>
</g>
</g>
</g>
</g>
<defs>
<radialGradient id="paint0_radial_269_260" cx="0" cy="0" r="1" gradientUnits="userSpaceOnUse" gradientTransform="translate(14.5818 33.8881) rotate(-104.693) scale(14.5521 9.69613)">
<stop stop-color="white" stop-opacity="0.4"/>
<stop offset="1" stop-opacity="0.1"/>
</radialGradient>
<radialGradient id="paint1_radial_269_260" cx="0" cy="0" r="1" gradientUnits="userSpaceOnUse" gradientTransform="translate(27.0065 27.8948) rotate(-82.485) scale(23.9161 17.6694)">
<stop stop-color="white" stop-opacity="0.6"/>
<stop offset="1" stop-color="white" stop-opacity="0.1"/>
</radialGradient>
<radialGradient id="paint2_radial_269_260" cx="0" cy="0" r="1" gradientUnits="userSpaceOnUse" gradientTransform="translate(15.4576 23.6906) rotate(-77.795) scale(20.4185 13.9517)">
<stop stop-color="white" stop-opacity="0.8"/>
<stop offset="1" stop-color="white" stop-opacity="0.4"/>
</radialGradient>
<radialGradient id="paint3_radial_269_260" cx="0" cy="0" r="1" gradientUnits="userSpaceOnUse" gradientTransform="translate(25.4612 36.5281) rotate(-120.496) scale(11.8346 13.6046)">
<stop stop-color="white" stop-opacity="0.3"/>
<stop offset="1" stop-opacity="0.3"/>
</radialGradient>
<radialGradient id="paint4_radial_269_260" cx="0" cy="0" r="1" gradientUnits="userSpaceOnUse" gradientTransform="translate(23.8784 12.5046) rotate(102.236) scale(10.6265 7.16588)">
<stop stop-color="white" stop-opacity="0"/>
<stop offset="1" stop-color="white" stop-opacity="0.2"/>
</radialGradient>
<radialGradient id="paint5_radial_269_260" cx="0" cy="0" r="1" gradientUnits="userSpaceOnUse" gradientTransform="translate(11.4288 18.2604) rotate(45.3237) scale(7.83013 16.678)">
<stop stop-color="white" stop-opacity="0.2"/>
<stop offset="1" stop-color="white" stop-opacity="0.4"/>
</radialGradient>
<radialGradient id="paint6_radial_269_260" cx="0" cy="0" r="1" gradientUnits="userSpaceOnUse" gradientTransform="translate(17.9348 22.2516) rotate(86.04) scale(8.1524 17.3121)">
<stop stop-color="white" stop-opacity="0.2"/>
<stop offset="1" stop-color="white" stop-opacity="0.3"/>
</radialGradient>
<radialGradient id="paint7_radial_269_260" cx="0" cy="0" r="1" gradientUnits="userSpaceOnUse" gradientTransform="translate(29.509 29.4588) rotate(-152.289) scale(13.9919 44.0181)">
<stop stop-color="white" stop-opacity="0.2"/>
<stop offset="0.5" stop-color="white" stop-opacity="0.2"/>
<stop offset="1" stop-color="white" stop-opacity="0.3"/>
</radialGradient>
<clipPath id="clip0_269_260">
<rect width="41" height="41" fill="white"/>
</clipPath>
</defs>
</svg>
