<svg width="41" height="41" viewBox="0 0 41 41" fill="none" xmlns="http://www.w3.org/2000/svg">
<g clip-path="url(#clip0_269_204)">
<path d="M31.3906 0H9.60938C4.30226 0 0 4.30226 0 9.60938V31.3906C0 36.6977 4.30226 41 9.60938 41H31.3906C36.6977 41 41 36.6977 41 31.3906V9.60938C41 4.30226 36.6977 0 31.3906 0Z" fill="#6181B6"/>
<path d="M12.4268 15.5547L12.6904 15.5625C13.9932 15.6213 15.037 16.039 15.7178 16.8994L15.8457 17.0723C16.4537 17.9502 16.6155 19.076 16.415 20.3809L16.416 20.3818C16.33 21.0326 16.1389 21.6674 15.8486 22.2861L15.8496 22.2871C15.5648 22.9187 15.1681 23.4857 14.666 23.9893L14.667 23.9902C14.0507 24.631 13.3661 25.0642 12.6104 25.25H12.6094C11.9238 25.4183 11.216 25.502 10.4873 25.502H8.86035L8.29492 28.3252L8.21484 28.7275H4.83594L4.95508 28.1299L7.38281 15.957L7.46289 15.5547H12.4268ZM32.5527 15.5547L32.8174 15.5625C34.1198 15.6214 35.1631 16.0391 35.8438 16.8994L35.9717 17.0723C36.5797 17.9502 36.7415 19.076 36.541 20.3809L36.542 20.3818C36.4557 21.0354 36.265 21.6737 35.9727 22.2949L35.9717 22.2939C35.6872 22.9225 35.293 23.4877 34.793 23.9893L34.7939 23.9902C34.2547 24.551 33.6625 24.9519 33.0166 25.168L32.7363 25.25C32.0506 25.4184 31.3422 25.502 30.6133 25.502H28.9863L28.4219 28.3252L28.3408 28.7275H24.9619L25.0811 28.1299L27.5088 15.957L27.5889 15.5547H32.5527ZM21.5635 12.3125L21.4404 12.9121L20.9014 15.5547H22.4033L22.8447 15.5742C23.8499 15.645 24.6826 15.8953 25.2861 16.3779H25.2852C26.0935 17.0145 26.2194 18.1346 25.9746 19.4404L25.9736 19.4473L24.8359 25.1006L24.7559 25.502H21.3584L21.4795 24.9033L22.5654 19.5049L22.5977 19.3164C22.655 18.9127 22.5916 18.7485 22.5557 18.7012C22.5483 18.6915 22.5107 18.6482 22.3799 18.6084C22.2484 18.5684 22.0538 18.541 21.7822 18.541H21.7783L20.3076 18.5273L18.9961 25.0996L18.916 25.502H15.5527L15.6729 24.9033L18.1182 12.7139L18.1982 12.3125H21.5635ZM10.6016 18.4902C10.487 18.4992 10.375 18.5043 10.2656 18.5059L9.44727 22.5996C10.4262 22.5988 11.2211 22.4951 11.8447 22.3008C12.2798 22.1563 12.7212 21.6021 12.9658 20.2129C13.0621 19.6503 13.0491 19.2715 12.9795 19.0371C12.919 18.8338 12.8267 18.7607 12.7051 18.7246L12.7031 18.7236C12.1698 18.5627 11.4737 18.4799 10.6016 18.4902ZM30.7275 18.4902C30.6129 18.4992 30.5009 18.5043 30.3916 18.5059L29.5732 22.5996C30.5511 22.5988 31.3454 22.4956 31.9688 22.3018C32.4046 22.1585 32.8468 21.6045 33.0918 20.2129C33.1881 19.6502 33.1751 19.2715 33.1055 19.0371C33.045 18.8338 32.9527 18.7607 32.8311 18.7246L32.8291 18.7236C32.2957 18.5627 31.5998 18.4798 30.7275 18.4902Z" fill="black" stroke="#F9F9F9"/>
</g>
<defs>
<clipPath id="clip0_269_204">
<rect width="41" height="41" fill="white"/>
</clipPath>
</defs>
</svg>
