<svg width="41" height="41" viewBox="0 0 41 41" fill="none" xmlns="http://www.w3.org/2000/svg">
<g clip-path="url(#clip0_269_246)">
<path d="M31.3906 0H9.60938C4.30226 0 0 4.30226 0 9.60938V31.3906C0 36.6977 4.30226 41 9.60938 41H31.3906C36.6977 41 41 36.6977 41 31.3906V9.60938C41 4.30226 36.6977 0 31.3906 0Z" fill="#242938"/>
<path d="M5.3998 16.0489C5.3998 16.0489 4.64146 15.5023 5.55147 14.7725L7.6713 12.8769C7.6713 12.8769 8.27797 12.2387 8.91924 12.7947L28.4822 27.6058V34.7081C28.4822 34.7081 28.4727 35.8234 27.0414 35.7001L5.3998 16.0489Z" fill="#2489CA"/>
<path d="M10.4422 20.6268L5.39983 25.211C5.39983 25.211 4.88157 25.5965 5.39983 26.2853L7.74084 28.4146C7.74084 28.4146 8.2969 29.0118 9.11834 28.3324L14.464 24.279L10.4422 20.6268Z" fill="#1070B3"/>
<path d="M19.2947 20.6648L28.5423 13.6035L28.4822 6.53919C28.4822 6.53919 28.0873 4.99737 26.7698 5.79991L14.4641 16.9998L19.2947 20.6648Z" fill="#0877B9"/>
<path d="M27.0414 35.7097C27.5786 36.2594 28.2294 36.0793 28.2294 36.0793L35.436 32.5282C36.3585 31.8994 36.2289 31.1191 36.2289 31.1191V9.91334C36.2289 8.98123 35.2747 8.65916 35.2747 8.65916L29.0288 5.64822C27.6639 4.80468 26.7698 5.79989 26.7698 5.79989C26.7698 5.79989 27.9197 4.9722 28.4822 6.53917V34.5785C28.4829 34.7697 28.4408 34.9587 28.359 35.1315C28.1947 35.4632 27.8377 35.7728 26.9815 35.6432L27.0414 35.7097Z" fill="#3C99D4"/>
</g>
<defs>
<clipPath id="clip0_269_246">
<rect width="41" height="41" fill="white"/>
</clipPath>
</defs>
</svg>
