<svg width="41" height="41" viewBox="0 0 41 41" fill="none" xmlns="http://www.w3.org/2000/svg">
<g clip-path="url(#clip0_269_312)">
<path d="M31.3906 0H9.60938C4.30226 0 0 4.30226 0 9.60938V31.3906C0 36.6977 4.30226 41 9.60938 41H31.3906C36.6977 41 41 36.6977 41 31.3906V9.60938C41 4.30226 36.6977 0 31.3906 0Z" fill="#242938"/>
<path d="M29.1484 8.00781H34.9141L20.5 32.8721L6.08594 8.00781H17.1127L20.5 13.7734L23.8152 8.00781H29.1484Z" fill="#41B883"/>
<path d="M6.08594 8.00781L20.5 32.8721L34.9141 8.00781H29.1484L20.5 22.9264L11.7795 8.00781H6.08594Z" fill="#41B883"/>
<path d="M11.7795 8.00781L20.5 22.9984L29.1484 8.00781H23.8152L20.5 13.7734L17.1127 8.00781H11.7795Z" fill="#F9F9F9"/>
</g>
<defs>
<clipPath id="clip0_269_312">
<rect width="41" height="41" fill="white"/>
</clipPath>
</defs>
</svg>
